REM DIRINDEX 1\2,1\3\5,1\3\6,1\4\7,1\4\8
REM DIRNAME folder01,folder02,folder03,folder04,folder05,folder06,folder07,folder08
TITLE ""
FILE "EG_E3_09.mp3" MP3
  TRACK 01 AUDIO
    TITLE "0:"
    INDEX 01 00:00:00
  TRACK 02 AUDIO
    TITLE "5:cjc139_1427"
    INDEX 01 00:00:17
  TRACK 03 AUDIO
    TITLE "6:cjc139_1428"
    INDEX 01 00:03:02
  TRACK 04 AUDIO
    TITLE "5:cjc139_1429"
    INDEX 01 00:05:61
  TRACK 05 AUDIO
    TITLE "6:cjc139_1430"
    INDEX 01 00:09:22
  TRACK 06 AUDIO
    TITLE "5:cjc139_1431"
    INDEX 01 00:12:05
  TRACK 07 AUDIO
    TITLE "6:cjc139_1432"
    INDEX 01 00:14:35
  TRACK 08 AUDIO
    TITLE "5:cjc139_1433"
    INDEX 01 00:17:20
  TRACK 09 AUDIO
    TITLE "6:cjc139_1434"
    INDEX 01 00:20:16
  TRACK 10 AUDIO
    TITLE "5:cjc139_1435"
    INDEX 01 00:22:74
  TRACK 11 AUDIO
    TITLE "6:cjc139_1436"
    INDEX 01 00:24:61
  TRACK 12 AUDIO
    TITLE "5:cjc139_1437"
    INDEX 01 00:27:47
  TRACK 13 AUDIO
    TITLE "6:cjc139_1438"
    INDEX 01 00:30:20
  TRACK 14 AUDIO
    TITLE "5:cjc139_1439"
    INDEX 01 00:33:03
  TRACK 15 AUDIO
    TITLE "6:cjc139_1440"
    INDEX 01 00:35:12
  TRACK 16 AUDIO
    TITLE "5:cjc139_1441"
    INDEX 01 00:37:71
  TRACK 17 AUDIO
    TITLE "6:cjc139_1442"
    INDEX 01 00:39:72
  TRACK 18 AUDIO
    TITLE "5:cjc139_1443"
    INDEX 01 00:42:55
  TRACK 19 AUDIO
    TITLE "6:cjc139_1444"
    INDEX 01 00:45:00
  TRACK 20 AUDIO
    TITLE "5:cjc139_1445"
    INDEX 01 00:47:62
  TRACK 21 AUDIO
    TITLE "6:cjc139_1446"
    INDEX 01 00:50:56
  TRACK 22 AUDIO
    TITLE "5:cjc139_1447"
    INDEX 01 00:53:43
  TRACK 23 AUDIO
    TITLE "6:cjc139_1448"
    INDEX 01 00:55:67
  TRACK 24 AUDIO
    TITLE "5:cjc139_1449"
    INDEX 01 00:58:52
  TRACK 25 AUDIO
    TITLE "6:cjc139_1450"
    INDEX 01 01:00:70
  TRACK 26 AUDIO
    TITLE "5:cjc139_1451"
    INDEX 01 01:03:55
  TRACK 27 AUDIO
    TITLE "6:cjc139_1452"
    INDEX 01 01:06:12
  TRACK 28 AUDIO
    TITLE "5:cjc139_1453"
    INDEX 01 01:08:72
  TRACK 29 AUDIO
    TITLE "6:cjc139_1454"
    INDEX 01 01:10:59
  TRACK 30 AUDIO
    TITLE "5:cjc139_1455"
    INDEX 01 01:13:47
  TRACK 31 AUDIO
    TITLE "6:cjc139_1456"
    INDEX 01 01:16:48
  TRACK 32 AUDIO
    TITLE "5:cjc139_1457"
    INDEX 01 01:19:34
  TRACK 33 AUDIO
    TITLE "6:cjc139_1458"
    INDEX 01 01:22:17
  TRACK 34 AUDIO
    TITLE "5:cjc139_1459"
    INDEX 01 01:25:00
  TRACK 35 AUDIO
    TITLE "6:cjc139_1460"
    INDEX 01 01:27:42
  TRACK 36 AUDIO
    TITLE "5:cjc139_1461"
    INDEX 01 01:30:28
  TRACK 37 AUDIO
    TITLE "6:cjc139_1462"
    INDEX 01 01:32:47
  TRACK 38 AUDIO
    TITLE "5:cjc139_1463"
    INDEX 01 01:35:31
  TRACK 39 AUDIO
    TITLE "6:cjc139_1464"
    INDEX 01 01:38:18
  TRACK 40 AUDIO
    TITLE "5:cjc139_1465"
    INDEX 01 01:41:03
  TRACK 41 AUDIO
    TITLE "6:cjc139_1466"
    INDEX 01 01:44:15
  TRACK 42 AUDIO
    TITLE "5:cjc139_1467"
    INDEX 01 01:46:74
  TRACK 43 AUDIO
    TITLE "6:cjc139_1468"
    INDEX 01 01:50:07
  TRACK 44 AUDIO
    TITLE "5:cjc139_1469"
    INDEX 01 01:52:65
  TRACK 45 AUDIO
    TITLE "6:cjc139_1470"
    INDEX 01 01:56:28
  TRACK 46 AUDIO
    TITLE "5:cjc139_1471"
    INDEX 01 01:59:14
  TRACK 47 AUDIO
    TITLE "6:cjc139_1472"
    INDEX 01 02:02:40
  TRACK 48 AUDIO
    TITLE "5:cjc139_1473"
    INDEX 01 02:05:25
  TRACK 49 AUDIO
    TITLE "6:cjc139_1474"
    INDEX 01 02:08:58
  TRACK 50 AUDIO
    TITLE "5:cjc139_1475"
    INDEX 01 02:11:43
  TRACK 51 AUDIO
    TITLE "6:cjc139_1476"
    INDEX 01 02:15:43
  TRACK 52 AUDIO
    TITLE "5:cjc139_1477"
    INDEX 01 02:18:29
  TRACK 53 AUDIO
    TITLE "6:cjc139_1478"
    INDEX 01 02:21:12
  TRACK 54 AUDIO
    TITLE "5:cjc139_1479"
    INDEX 01 02:23:70
  TRACK 55 AUDIO
    TITLE "6:cjc139_1480"
    INDEX 01 02:27:54
  TRACK 56 AUDIO
    TITLE "5:cjc139_1481"
    INDEX 01 02:30:38
  TRACK 57 AUDIO
    TITLE "6:cjc139_1482"
    INDEX 01 02:33:64
  TRACK 58 AUDIO
    TITLE "5:cjc139_1483"
    INDEX 01 02:36:47
  TRACK 59 AUDIO
    TITLE "6:cjc139_1484"
    INDEX 01 02:39:57
  TRACK 60 AUDIO
    TITLE "5:cjc139_1485"
    INDEX 01 02:42:43
  TRACK 61 AUDIO
    TITLE "6:cjc139_1486"
    INDEX 01 02:45:46
  TRACK 62 AUDIO
    TITLE "5:cjc139_1487"
    INDEX 01 02:48:30
  TRACK 63 AUDIO
    TITLE "6:cjc139_1488"
    INDEX 01 02:51:44
  TRACK 64 AUDIO
    TITLE "5:cjc139_1489"
    INDEX 01 02:54:29
  TRACK 65 AUDIO
    TITLE "6:cjc139_1490"
    INDEX 01 02:57:12
  TRACK 66 AUDIO
    TITLE "5:cjc139_1491"
    INDEX 01 02:59:71
  TRACK 67 AUDIO
    TITLE "6:cjc139_1492"
    INDEX 01 03:02:60
  TRACK 68 AUDIO
    TITLE "5:cjc139_1493"
    INDEX 01 03:05:46
  TRACK 69 AUDIO
    TITLE "6:cjc139_1494"
    INDEX 01 03:07:04
  TRACK 70 AUDIO
    TITLE "5:cjc139_1495"
    INDEX 01 03:09:64
  TRACK 71 AUDIO
    TITLE "6:cjc139_1496"
    INDEX 01 03:11:59
  TRACK 72 AUDIO
    TITLE "5:cjc139_1497"
    INDEX 01 03:14:47
  TRACK 73 AUDIO
    TITLE "6:cjc139_1498"
    INDEX 01 03:17:22
  TRACK 74 AUDIO
    TITLE "0:"
    INDEX 01 03:20:15
